<svg width="563" height="1080" viewBox="0 0 563 1080" fill="none" xmlns="http://www.w3.org/2000/svg">
<g filter="url(#filter0_b_2_132)">
<rect width="563" height="1080" fill="#252525" fill-opacity="0.5"/>
</g>
<path d="M216.031 425.92H219.881L229.303 449H224.311L222.43 444.465H213.588L211.777 449H206.803L216.031 425.92ZM217.965 433.479L215.275 440.281H220.742L217.965 433.479ZM232.783 425.92H240.377C242.686 425.92 244.508 426.529 245.844 427.748C247.191 428.967 247.865 430.613 247.865 432.688C247.865 433.871 247.555 435.102 246.934 436.379C246.324 437.656 245.193 438.658 243.541 439.385L249.992 449H244.297L238.32 440.07H237.758V449H232.783V425.92ZM237.793 430.033V436.045H238.865C241.455 436.045 242.75 434.984 242.75 432.863C242.75 431.996 242.41 431.311 241.73 430.807C241.062 430.291 240.131 430.033 238.936 430.033H237.793ZM251.873 425.92H267.395V430.824H262.104V449H257.129V430.824H251.873V425.92ZM270.471 425.92H275.428V449H270.471V425.92ZM293.023 428.012L289.93 431.404C288.301 430.443 287.129 429.963 286.414 429.963C285.863 429.963 285.389 430.174 284.99 430.596C284.592 431.006 284.393 431.498 284.393 432.072C284.393 433.209 285.424 434.193 287.486 435.025C288.998 435.67 290.141 436.256 290.914 436.783C291.688 437.299 292.332 438.02 292.848 438.945C293.375 439.871 293.639 440.873 293.639 441.951C293.639 443.932 292.836 445.654 291.23 447.119C289.637 448.584 287.75 449.316 285.57 449.316C283.18 449.316 280.818 448.191 278.486 445.941L281.756 442.127C283.221 443.639 284.592 444.395 285.869 444.395C286.467 444.395 287.041 444.131 287.592 443.604C288.143 443.064 288.418 442.502 288.418 441.916C288.418 440.709 287.146 439.648 284.604 438.734C283.15 438.207 282.119 437.715 281.51 437.258C280.9 436.789 280.385 436.115 279.963 435.236C279.553 434.346 279.348 433.438 279.348 432.512C279.348 430.461 280.016 428.797 281.352 427.52C282.688 426.242 284.434 425.604 286.59 425.604C289.145 425.604 291.289 426.406 293.023 428.012ZM295.643 425.92H311.164V430.824H305.873V449H300.898V430.824H295.643V425.92ZM327.441 428.012L324.348 431.404C322.719 430.443 321.547 429.963 320.832 429.963C320.281 429.963 319.807 430.174 319.408 430.596C319.01 431.006 318.811 431.498 318.811 432.072C318.811 433.209 319.842 434.193 321.904 435.025C323.416 435.67 324.559 436.256 325.332 436.783C326.105 437.299 326.75 438.02 327.266 438.945C327.793 439.871 328.057 440.873 328.057 441.951C328.057 443.932 327.254 445.654 325.648 447.119C324.055 448.584 322.168 449.316 319.988 449.316C317.598 449.316 315.236 448.191 312.904 445.941L316.174 442.127C317.639 443.639 319.01 444.395 320.287 444.395C320.885 444.395 321.459 444.131 322.01 443.604C322.561 443.064 322.836 442.502 322.836 441.916C322.836 440.709 321.564 439.648 319.021 438.734C317.568 438.207 316.537 437.715 315.928 437.258C315.318 436.789 314.803 436.115 314.381 435.236C313.971 434.346 313.766 433.438 313.766 432.512C313.766 430.461 314.434 428.797 315.77 427.52C317.105 426.242 318.852 425.604 321.008 425.604C323.562 425.604 325.707 426.406 327.441 428.012Z" fill="white"/>
<path d="M212.006 491.012L208.912 494.404C207.283 493.443 206.111 492.963 205.396 492.963C204.846 492.963 204.371 493.174 203.973 493.596C203.574 494.006 203.375 494.498 203.375 495.072C203.375 496.209 204.406 497.193 206.469 498.025C207.98 498.67 209.123 499.256 209.896 499.783C210.67 500.299 211.314 501.02 211.83 501.945C212.357 502.871 212.621 503.873 212.621 504.951C212.621 506.932 211.818 508.654 210.213 510.119C208.619 511.584 206.732 512.316 204.553 512.316C202.162 512.316 199.801 511.191 197.469 508.941L200.738 505.127C202.203 506.639 203.574 507.395 204.852 507.395C205.449 507.395 206.023 507.131 206.574 506.604C207.125 506.064 207.4 505.502 207.4 504.916C207.4 503.709 206.129 502.648 203.586 501.734C202.133 501.207 201.102 500.715 200.492 500.258C199.883 499.789 199.367 499.115 198.945 498.236C198.535 497.346 198.33 496.438 198.33 495.512C198.33 493.461 198.998 491.797 200.334 490.52C201.67 489.242 203.416 488.604 205.572 488.604C208.127 488.604 210.271 489.406 212.006 491.012ZM216.242 488.92H229.232V493.49H221.217V498.148H229.232V502.648H221.217V507.43H229.232V512H216.242V488.92ZM233.434 488.92H241.027C243.336 488.92 245.158 489.529 246.494 490.748C247.842 491.967 248.516 493.613 248.516 495.688C248.516 496.871 248.205 498.102 247.584 499.379C246.975 500.656 245.844 501.658 244.191 502.385L250.643 512H244.947L238.971 503.07H238.408V512H233.434V488.92ZM238.443 493.033V499.045H239.516C242.105 499.045 243.4 497.984 243.4 495.863C243.4 494.996 243.061 494.311 242.381 493.807C241.713 493.291 240.781 493.033 239.586 493.033H238.443ZM251.117 488.92H256.145L261.98 504.266L267.816 488.92H272.861L264.143 512H259.818L251.117 488.92ZM275.621 488.92H280.578V512H275.621V488.92ZM302.463 490.15V495.793C299.967 494.281 297.781 493.525 295.906 493.525C294.031 493.525 292.531 494.17 291.406 495.459C290.281 496.748 289.719 498.482 289.719 500.662C289.719 502.725 290.311 504.377 291.494 505.619C292.678 506.85 294.26 507.465 296.24 507.465C297.975 507.465 300.049 506.768 302.463 505.373V510.963C299.756 511.865 297.5 512.316 295.695 512.316C292.59 512.316 289.953 511.18 287.785 508.906C285.617 506.621 284.533 503.838 284.533 500.557C284.533 497.217 285.635 494.393 287.838 492.084C290.053 489.764 292.742 488.604 295.906 488.604C297.945 488.604 300.131 489.119 302.463 490.15ZM306.242 488.92H319.232V493.49H311.217V498.148H319.232V502.648H311.217V507.43H319.232V512H306.242V488.92ZM336.424 491.012L333.33 494.404C331.701 493.443 330.529 492.963 329.814 492.963C329.264 492.963 328.789 493.174 328.391 493.596C327.992 494.006 327.793 494.498 327.793 495.072C327.793 496.209 328.824 497.193 330.887 498.025C332.398 498.67 333.541 499.256 334.314 499.783C335.088 500.299 335.732 501.02 336.248 501.945C336.775 502.871 337.039 503.873 337.039 504.951C337.039 506.932 336.236 508.654 334.631 510.119C333.037 511.584 331.15 512.316 328.971 512.316C326.58 512.316 324.219 511.191 321.887 508.941L325.156 505.127C326.621 506.639 327.992 507.395 329.27 507.395C329.867 507.395 330.441 507.131 330.992 506.604C331.543 506.064 331.818 505.502 331.818 504.916C331.818 503.709 330.547 502.648 328.004 501.734C326.551 501.207 325.52 500.715 324.91 500.258C324.301 499.789 323.785 499.115 323.363 498.236C322.953 497.346 322.748 496.438 322.748 495.512C322.748 493.461 323.416 491.797 324.752 490.52C326.088 489.242 327.834 488.604 329.99 488.604C332.545 488.604 334.689 489.406 336.424 491.012Z" fill="white"/>
<path d="M212.885 679.15V684.793C210.389 683.281 208.203 682.525 206.328 682.525C204.453 682.525 202.953 683.17 201.828 684.459C200.703 685.748 200.141 687.482 200.141 689.662C200.141 691.725 200.732 693.377 201.916 694.619C203.1 695.85 204.682 696.465 206.662 696.465C208.396 696.465 210.471 695.768 212.885 694.373V699.963C210.178 700.865 207.922 701.316 206.117 701.316C203.012 701.316 200.375 700.18 198.207 697.906C196.039 695.621 194.955 692.838 194.955 689.557C194.955 686.217 196.057 683.393 198.26 681.084C200.475 678.764 203.164 677.604 206.328 677.604C208.367 677.604 210.553 678.119 212.885 679.15ZM215.873 689.451C215.873 686.041 216.998 683.229 219.248 681.014C221.51 678.787 224.188 677.674 227.281 677.674C230.703 677.674 233.533 678.793 235.771 681.031C238.01 683.258 239.129 686.076 239.129 689.486C239.129 692.873 238.021 695.686 235.807 697.924C233.592 700.162 230.803 701.281 227.439 701.281C224.076 701.281 221.305 700.168 219.125 697.941C216.957 695.715 215.873 692.885 215.873 689.451ZM227.51 682.279C225.576 682.244 224.018 682.912 222.834 684.283C221.65 685.654 221.059 687.424 221.059 689.592C221.059 691.643 221.662 693.342 222.869 694.689C224.076 696.037 225.6 696.711 227.439 696.711C229.373 696.711 230.932 696.049 232.115 694.725C233.311 693.389 233.908 691.631 233.908 689.451C233.908 687.307 233.322 685.584 232.15 684.283C230.99 682.982 229.443 682.314 227.51 682.279ZM258.535 677.92H263.404V701H258.588L247.988 686.059V701H243.031V677.92H247.918L258.535 692.756V677.92ZM266.48 677.92H282.002V682.824H276.711V701H271.736V682.824H266.48V677.92ZM290.791 677.92H294.641L304.062 701H299.07L297.189 696.465H288.348L286.537 701H281.562L290.791 677.92ZM292.725 685.479L290.035 692.281H295.502L292.725 685.479ZM323.029 679.15V684.793C320.533 683.281 318.348 682.525 316.473 682.525C314.598 682.525 313.098 683.17 311.973 684.459C310.848 685.748 310.285 687.482 310.285 689.662C310.285 691.725 310.877 693.377 312.061 694.619C313.244 695.85 314.826 696.465 316.807 696.465C318.541 696.465 320.615 695.768 323.029 694.373V699.963C320.322 700.865 318.066 701.316 316.262 701.316C313.156 701.316 310.52 700.18 308.352 697.906C306.184 695.621 305.1 692.838 305.1 689.557C305.1 686.217 306.201 683.393 308.404 681.084C310.619 678.764 313.309 677.604 316.473 677.604C318.512 677.604 320.697 678.119 323.029 679.15ZM325.191 677.92H340.713V682.824H335.422V701H330.447V682.824H325.191V677.92Z" fill="white"/>
<path d="M168.473 551.92H176.348C179.711 551.92 182.418 552.98 184.469 555.102C186.52 557.223 187.545 560.018 187.545 563.486C187.545 566.967 186.484 569.756 184.363 571.854C182.254 573.951 179.441 575 175.926 575H168.473V551.92ZM173.482 556.279V570.535H175.451C177.49 570.535 179.166 569.979 180.479 568.865C181.791 567.752 182.447 565.895 182.447 563.293C182.447 561.781 182.131 560.445 181.498 559.285C180.865 558.113 179.945 557.322 178.738 556.912C177.543 556.49 176.4 556.279 175.311 556.279H173.482ZM191.184 551.92H196.141V575H191.184V551.92ZM213.736 554.012L210.643 557.404C209.014 556.443 207.842 555.963 207.127 555.963C206.576 555.963 206.102 556.174 205.703 556.596C205.305 557.006 205.105 557.498 205.105 558.072C205.105 559.209 206.137 560.193 208.199 561.025C209.711 561.67 210.854 562.256 211.627 562.783C212.4 563.299 213.045 564.02 213.561 564.945C214.088 565.871 214.352 566.873 214.352 567.951C214.352 569.932 213.549 571.654 211.943 573.119C210.35 574.584 208.463 575.316 206.283 575.316C203.893 575.316 201.531 574.191 199.199 571.941L202.469 568.127C203.934 569.639 205.305 570.395 206.582 570.395C207.18 570.395 207.754 570.131 208.305 569.604C208.855 569.064 209.131 568.502 209.131 567.916C209.131 566.709 207.859 565.648 205.316 564.734C203.863 564.207 202.832 563.715 202.223 563.258C201.613 562.789 201.098 562.115 200.676 561.236C200.266 560.346 200.061 559.438 200.061 558.512C200.061 556.461 200.729 554.797 202.064 553.52C203.4 552.242 205.146 551.604 207.303 551.604C209.857 551.604 212.002 552.406 213.736 554.012ZM235.182 553.15V558.793C232.686 557.281 230.5 556.525 228.625 556.525C226.75 556.525 225.25 557.17 224.125 558.459C223 559.748 222.438 561.482 222.438 563.662C222.438 565.725 223.029 567.377 224.213 568.619C225.396 569.85 226.979 570.465 228.959 570.465C230.693 570.465 232.768 569.768 235.182 568.373V573.963C232.475 574.865 230.219 575.316 228.414 575.316C225.309 575.316 222.672 574.18 220.504 571.906C218.336 569.621 217.252 566.838 217.252 563.557C217.252 560.217 218.354 557.393 220.557 555.084C222.771 552.764 225.461 551.604 228.625 551.604C230.664 551.604 232.85 552.119 235.182 553.15ZM238.17 563.451C238.17 560.041 239.295 557.229 241.545 555.014C243.807 552.787 246.484 551.674 249.578 551.674C253 551.674 255.83 552.793 258.068 555.031C260.307 557.258 261.426 560.076 261.426 563.486C261.426 566.873 260.318 569.686 258.104 571.924C255.889 574.162 253.1 575.281 249.736 575.281C246.373 575.281 243.602 574.168 241.422 571.941C239.254 569.715 238.17 566.885 238.17 563.451ZM249.807 556.279C247.873 556.244 246.314 556.912 245.131 558.283C243.947 559.654 243.355 561.424 243.355 563.592C243.355 565.643 243.959 567.342 245.166 568.689C246.373 570.037 247.896 570.711 249.736 570.711C251.67 570.711 253.229 570.049 254.412 568.725C255.607 567.389 256.205 565.631 256.205 563.451C256.205 561.307 255.619 559.584 254.447 558.283C253.287 556.982 251.74 556.314 249.807 556.279ZM285.191 556.93L281.887 560.023C281.195 558.828 280.34 557.938 279.32 557.352C278.301 556.754 277.234 556.455 276.121 556.455C274.316 556.455 272.746 557.141 271.41 558.512C270.086 559.883 269.424 561.5 269.424 563.363C269.424 565.344 270.086 567.025 271.41 568.408C272.746 569.779 274.352 570.465 276.227 570.465C277.246 570.465 278.225 570.207 279.162 569.691C280.111 569.176 280.873 568.209 281.447 566.791H275.98V562.291H286.633V565.279C286.633 566.814 286.105 568.467 285.051 570.236C283.996 571.994 282.607 573.283 280.885 574.104C279.162 574.912 277.422 575.316 275.664 575.316C272.477 575.316 269.787 574.162 267.596 571.854C265.404 569.545 264.309 566.691 264.309 563.293C264.309 560.07 265.434 557.316 267.684 555.031C269.945 552.746 272.664 551.604 275.84 551.604C279.895 551.604 283.012 553.379 285.191 556.93ZM290.324 551.92H297.918C300.227 551.92 302.049 552.529 303.385 553.748C304.732 554.967 305.406 556.613 305.406 558.688C305.406 559.871 305.096 561.102 304.475 562.379C303.865 563.656 302.734 564.658 301.082 565.385L307.533 575H301.838L295.861 566.07H295.299V575H290.324V551.92ZM295.334 556.033V562.045H296.406C298.996 562.045 300.291 560.984 300.291 558.863C300.291 557.996 299.951 557.311 299.271 556.807C298.604 556.291 297.672 556.033 296.477 556.033H295.334ZM319.346 551.92H323.195L332.617 575H327.625L325.744 570.465H316.902L315.092 575H310.117L319.346 551.92ZM321.279 559.479L318.59 566.281H324.057L321.279 559.479ZM336.238 551.92H344.131C346.252 551.92 347.963 552.541 349.264 553.783C350.564 555.014 351.215 556.637 351.215 558.652C351.215 559.977 350.893 561.236 350.248 562.432C349.615 563.615 348.654 564.5 347.365 565.086C346.076 565.672 344.975 565.977 344.061 566L341.178 566.07V575H336.238V551.92ZM341.107 556.068V561.975H343.041C343.873 561.975 344.582 561.676 345.168 561.078C345.766 560.48 346.064 559.771 346.064 558.951C346.064 558.014 345.73 557.287 345.062 556.771C344.395 556.256 343.445 555.998 342.215 555.998L341.107 556.068ZM355.223 551.92H360.197V560.814H368.371V551.92H373.328V575H368.371V565.824H360.197V575H355.223V551.92ZM376.352 551.92H381.854L386.107 559.092L390.432 551.92H395.969L388.621 564.207V575H383.699V564.207L376.352 551.92Z" fill="white"/>
<path d="M222.518 614.92H226.367L235.789 638H230.797L228.916 633.465H220.074L218.264 638H213.289L222.518 614.92ZM224.451 622.479L221.762 629.281H227.229L224.451 622.479ZM239.234 614.92H245.967C248.779 614.92 250.701 615.506 251.732 616.678C252.764 617.85 253.279 619.221 253.279 620.791C253.279 621.787 253.092 622.631 252.717 623.322C252.342 624.002 251.738 624.693 250.906 625.396C252.5 625.947 253.625 626.762 254.281 627.84C254.949 628.906 255.283 630.049 255.283 631.268C255.283 633.389 254.557 635.041 253.104 636.225C251.65 637.408 249.605 638 246.969 638H239.234V614.92ZM244.209 618.805V623.85H245.352C246.195 623.85 246.904 623.586 247.479 623.059C248.053 622.52 248.34 621.857 248.34 621.072C248.34 620.439 248.059 619.906 247.496 619.473C246.934 619.027 246.23 618.805 245.387 618.805H244.209ZM244.209 627.77V634.115H246.002C248.744 634.115 250.115 633.119 250.115 631.127C250.115 630.049 249.781 629.223 249.113 628.648C248.445 628.062 247.49 627.77 246.248 627.77H244.209ZM257.639 626.451C257.639 623.041 258.764 620.229 261.014 618.014C263.275 615.787 265.953 614.674 269.047 614.674C272.469 614.674 275.299 615.793 277.537 618.031C279.775 620.258 280.895 623.076 280.895 626.486C280.895 629.873 279.787 632.686 277.572 634.924C275.357 637.162 272.568 638.281 269.205 638.281C265.842 638.281 263.07 637.168 260.891 634.941C258.723 632.715 257.639 629.885 257.639 626.451ZM269.275 619.279C267.342 619.244 265.783 619.912 264.6 621.283C263.416 622.654 262.824 624.424 262.824 626.592C262.824 628.643 263.428 630.342 264.635 631.689C265.842 633.037 267.365 633.711 269.205 633.711C271.139 633.711 272.697 633.049 273.881 631.725C275.076 630.389 275.674 628.631 275.674 626.451C275.674 624.307 275.088 622.584 273.916 621.283C272.756 619.982 271.209 619.314 269.275 619.279ZM285.043 614.92H289.947V629.035C289.947 630.348 290.311 631.402 291.037 632.199C291.764 632.996 292.719 633.395 293.902 633.395C295.262 633.395 296.316 632.996 297.066 632.199C297.816 631.391 298.191 630.254 298.191 628.789V614.92H303.078V629.861C303.078 631.174 302.738 632.539 302.059 633.957C301.379 635.363 300.33 636.441 298.912 637.191C297.506 637.941 295.93 638.316 294.184 638.316C291.02 638.316 288.705 637.438 287.24 635.68C285.775 633.91 285.043 632.053 285.043 630.107V614.92ZM306.312 614.92H321.834V619.824H316.543V638H311.568V619.824H306.312V614.92Z" fill="white"/>
<path d="M149.297 933.731C157.059 933.731 161.302 927.3 161.302 921.726C161.302 921.542 161.302 921.359 161.294 921.184C162.116 920.589 162.834 919.845 163.402 918.996C162.65 919.329 161.836 919.556 160.979 919.661C161.854 919.136 162.519 918.314 162.834 917.325C162.02 917.806 161.119 918.156 160.156 918.349C159.386 917.526 158.292 917.019 157.076 917.019C154.749 917.019 152.859 918.909 152.859 921.236C152.859 921.569 152.894 921.892 152.972 922.199C149.464 922.024 146.357 920.344 144.275 917.789C143.916 918.41 143.706 919.136 143.706 919.906C143.706 921.367 144.45 922.662 145.587 923.415C144.896 923.397 144.249 923.205 143.68 922.89V922.942C143.68 924.99 145.132 926.687 147.066 927.081C146.716 927.177 146.34 927.23 145.955 927.23C145.684 927.23 145.421 927.204 145.159 927.151C145.692 928.831 147.25 930.047 149.096 930.082C147.652 931.211 145.832 931.885 143.855 931.885C143.514 931.885 143.181 931.867 142.849 931.824C144.695 933.031 146.917 933.731 149.297 933.731Z" fill="#C4C4C4"/>
<path d="M241.312 929.559L242.088 924.5H237.234V921.217C237.234 919.833 237.912 918.484 240.086 918.484H242.293V914.178C242.293 914.178 240.29 913.836 238.376 913.836C234.378 913.836 231.766 916.259 231.766 920.645V924.5H227.322V929.559H231.766V941.787C232.657 941.927 233.57 942 234.5 942C235.43 942 236.343 941.927 237.234 941.787V929.559H241.312Z" fill="#C4C4C4"/>
<path d="M309 915C306.284 915 305.944 915.012 304.877 915.06C303.813 915.109 303.086 915.278 302.45 915.525C301.792 915.781 301.234 916.123 300.678 916.678C300.122 917.234 299.781 917.792 299.525 918.45C299.278 919.086 299.109 919.813 299.06 920.877C299.011 921.944 299 922.284 299 925C299 927.716 299.011 928.056 299.06 929.123C299.109 930.187 299.278 930.914 299.525 931.55C299.781 932.208 300.122 932.766 300.678 933.322C301.234 933.878 301.792 934.219 302.45 934.475C303.086 934.722 303.813 934.891 304.877 934.94C305.944 934.988 306.284 935 309 935C311.716 935 312.056 934.988 313.123 934.94C314.187 934.891 314.914 934.722 315.55 934.475C316.208 934.219 316.766 933.878 317.322 933.322C317.878 932.766 318.219 932.208 318.475 931.55C318.722 930.914 318.891 930.187 318.94 929.123C318.988 928.056 319 927.716 319 925C319 922.284 318.988 921.944 318.94 920.877C318.891 919.813 318.722 919.086 318.475 918.45C318.219 917.792 317.878 917.234 317.322 916.678C316.766 916.123 316.208 915.781 315.55 915.525C314.914 915.278 314.187 915.109 313.123 915.06C312.056 915.012 311.716 915 309 915V915ZM309 916.802C311.67 916.802 311.986 916.812 313.041 916.86C314.016 916.905 314.545 917.068 314.898 917.204C315.364 917.386 315.698 917.603 316.048 917.952C316.397 918.302 316.614 918.636 316.796 919.102C316.933 919.455 317.095 919.984 317.14 920.959C317.188 922.014 317.198 922.33 317.198 925C317.198 927.67 317.188 927.986 317.14 929.041C317.095 930.016 316.933 930.545 316.796 930.898C316.614 931.364 316.397 931.698 316.048 932.048C315.698 932.397 315.364 932.614 314.898 932.796C314.545 932.933 314.016 933.095 313.041 933.14C311.987 933.188 311.67 933.198 309 933.198C306.33 933.198 306.014 933.188 304.959 933.14C303.984 933.095 303.455 932.933 303.102 932.796C302.636 932.614 302.302 932.397 301.952 932.048C301.603 931.698 301.386 931.364 301.204 930.898C301.067 930.545 300.905 930.016 300.86 929.041C300.812 927.986 300.802 927.67 300.802 925C300.802 922.33 300.812 922.014 300.86 920.959C300.905 919.984 301.067 919.455 301.204 919.102C301.386 918.636 301.603 918.302 301.952 917.952C302.302 917.603 302.636 917.386 303.102 917.204C303.455 917.068 303.984 916.905 304.959 916.86C306.014 916.812 306.33 916.802 309 916.802Z" fill="url(#paint0_linear_2_132)"/>
<path d="M309 928.333C307.159 928.333 305.667 926.841 305.667 925C305.667 923.159 307.159 921.666 309 921.666C310.841 921.666 312.333 923.159 312.333 925C312.333 926.841 310.841 928.333 309 928.333ZM309 919.865C306.164 919.865 303.865 922.164 303.865 925C303.865 927.836 306.164 930.135 309 930.135C311.836 930.135 314.135 927.836 314.135 925C314.135 922.164 311.836 919.865 309 919.865Z" fill="#C4C4C4"/>
<path d="M315.538 919.662C315.538 920.325 315.001 920.862 314.338 920.862C313.675 920.862 313.138 920.325 313.138 919.662C313.138 918.999 313.675 918.462 314.338 918.462C315.001 918.462 315.538 918.999 315.538 919.662Z" fill="#C4C4C4"/>
<path d="M379 933.25L392.856 925.25L379 917.25V933.25Z" fill="#FF0000"/>
<defs>
<filter id="filter0_b_2_132" x="-100" y="-100" width="763" height="1280" filterUnits="userSpaceOnUse" color-interpolation-filters="sRGB">
<feFlood flood-opacity="0" result="BackgroundImageFix"/>
<feGaussianBlur in="BackgroundImage" stdDeviation="50"/>
<feComposite in2="SourceAlpha" operator="in" result="effect1_backgroundBlur_2_132"/>
<feBlend mode="normal" in="SourceGraphic" in2="effect1_backgroundBlur_2_132" result="shape"/>
</filter>
<linearGradient id="paint0_linear_2_132" x1="310.75" y1="913.94" x2="304.906" y2="933.249" gradientUnits="userSpaceOnUse">
<stop stop-color="#CACEF6"/>
<stop offset="0.26" stop-color="white"/>
<stop offset="0.66" stop-color="white"/>
<stop offset="1" stop-color="#F9EBC7"/>
</linearGradient>
</defs>
</svg>
