<svg width="1231" height="1080" viewBox="0 0 1231 1080" fill="none" xmlns="http://www.w3.org/2000/svg">
<path d="M43.5001 979C9.00011 969.478 -69.4999 932.5 149.5 743.5C368.5 554.5 98.5 502 392 358.5C685.5 215 426 183.5 525.5 118.5C625 53.5 1047 206.5 1185.5 160C1324 113.5 1019.5 -110 1019.5 -110C1019.5 -110 1259.5 -41 1342.5 14.5C1425.5 70 1386.5 347 1356.5 517.5C1326.5 688 1372.5 743.5 1425.5 917C1478.5 1090.5 1386.5 1166 1386.5 1166H1162.5C1162.5 1166 869.5 952 763.5 947C657.5 942 765.5 1281.5 514 1071.5C262.5 861.5 78 988.522 43.5001 979Z" fill="#252525" fill-opacity="0.8" stroke="black"/>
</svg>
